<svg width="107" height="107" viewBox="0 0 107 107" fill="none" xmlns="http://www.w3.org/2000/svg">
<path d="M20.7306 33.9202C35.7693 33.9202 49.6565 34.6191 64.488 37.6191C72.0343 39.1456 80.6185 33.9202 88.1084 33.9202C111.988 33.9202 40.2575 31.9627 16.7031 27.7938C11.225 26.8242 26.0713 27.6782 28.4589 27.6782C32.7403 27.6782 37.0217 27.6782 41.3031 27.6782C58.9067 27.6782 107.075 51.0852 92.7889 40.1622C79.3934 29.9199 72.1474 26.4539 56.2155 30.6836C51.3124 31.9853 46.5238 31.8395 41.5208 31.8395C35.8969 31.8395 52.7686 31.8395 58.3925 31.8395C71.5935 31.8395 85.6983 24.0203 95.1836 36.4632C96.4699 38.1507 106.557 51.942 99.5376 44.7859C95.9749 41.1538 94.9264 35.9589 92.0269 32.8798C85.2034 25.6336 70.7292 29.6045 63.8349 33.4578C58.3242 36.5379 48.4536 37.8514 48.1606 45.9418C47.8828 53.6129 48.4974 55.9917 42.3916 47.4445C33.5706 35.0965 26.5604 -0.781063 12.3492 31.7239C7.12801 43.6661 13.5488 50.1686 16.4854 60.0441C17.3383 62.9121 16.812 72.0679 16.812 69.0603C16.812 59.6587 16.812 50.2572 16.812 40.8557C16.812 30.7925 17.1447 34.2284 15.5058 41.6649C13.8736 49.0706 8.4944 57.3497 9.41022 65.1301C9.80225 68.4606 17.3173 85.9038 23.5607 81.0819C28.4396 77.3137 28.2028 57.4195 29.5474 50.5655C32.695 34.5208 35.7754 52.035 39.4527 60.7376C41.2776 65.0565 47.9486 85.0939 48.1606 70.9097C48.2798 62.9382 48.1606 54.9548 48.1606 46.9821C48.1606 44.6764 46.1011 38.0999 47.0721 40.1622C53.495 53.8036 56.4337 69.8318 63.8349 82.9313C65.1422 85.2451 63.7721 77.5216 64.0526 74.8399C64.331 72.1795 67.7535 57.8995 67.7535 59.9285C67.7535 65.981 67.118 40.0942 66.7739 40.9713C65.709 43.6854 66.6512 51.7556 67.3181 44.5547C68.0249 36.9241 66.6289 32.5579 59.481 31.3771C49.1126 29.6644 36.6733 39.4351 27.6969 44.3235C14.3778 51.5769 19.7193 74.3216 32.9217 79.5792C51.9521 87.1576 76.5356 83.6182 80.1624 60.1596C82.6691 43.9458 81.8475 35.7797 64.5969 34.1514C44.2944 32.2349 23.2231 47.3857 20.7306 70.6785C17.7421 98.6062 58.1923 85.2232 68.4066 76.9205C83.1815 64.9108 50.3718 46.4287 43.1535 55.1892C34.5169 65.671 51.4071 78.269 60.0252 79.2324C70.5329 80.407 97.869 66.0734 86.0402 51.837C80.9743 45.7399 69.5341 41.9743 62.7464 39.0062C52.0078 34.3105 45.4663 33.8622 39.235 45.017C33.981 54.4224 36.9522 60.1426 47.2898 62.1247C64.3481 65.3955 87.8843 31.2209 71.6721 17.5061C64.1192 11.1166 46.2579 11.1445 37.1668 10.4549C28.3656 9.78733 20.1618 11.2569 17.2474 21.205C9.99969 45.9443 25.4319 74.946 52.0792 62.8183C56.7073 60.7119 68.4012 56.6715 70.8013 51.0278C73.3098 45.1292 54.3084 35.9557 51.4261 34.4981C40.8989 29.1746 32.2084 29.9897 21.6014 34.8449C18.5113 36.2594 4.06697 43.1069 7.45093 49.6407C9.37325 53.3524 19.7211 54.9071 22.9076 55.6515C33.1758 58.0505 41.9795 57.7322 50.773 51.0278C67.1969 38.5058 39.2564 39.1235 37.2757 49.6407C37.016 51.0194 26.2362 73.7294 39.6704 66.286C48.1529 61.5862 61.9667 33.8806 50.2288 26.869C45.9954 24.3403 46.4145 27.0717 48.8137 30.4524C54.1964 38.0373 60.9415 47.5688 68.4066 52.9929C73.8955 56.9811 79.3751 33.1085 73.196 30.2212C70.0966 28.773 65.3129 30.5141 64.7057 34.3825C64.6592 34.6792 65.2048 34.8386 64.9234 34.1514C62.9817 29.4087 57.7735 25.2691 54.2562 22.2453C47.4002 16.3515 34.1878 1.92238 24.4314 7.10275C22.2235 8.27509 7.05573 15.5084 16.7031 14.8474C22.9993 14.4161 30.0576 12.7598 35.3164 8.95223C37.4903 7.37822 27.8594 23.2987 26.6084 25.1352C25.7973 26.3259 14.297 41.7238 18.7713 40.3934C27.4116 37.8242 36.9169 30.408 42.9358 23.5169C43.2782 23.1249 50.991 11.3789 49.4668 16.2345C45.5385 28.7494 36.5572 41.6878 29.0031 51.9526C23.5318 59.3872 15.7293 65.2202 26.0642 53.2241C30.7483 47.7871 41.0289 29.4255 39.8881 36.6944C39.0059 42.3152 32.1945 72.3362 32.704 72.0657C43.9217 66.1093 30.2468 46.6502 28.6766 38.3127C28.4513 37.1166 28.5406 48.2349 28.5677 50.3343C28.7602 65.2544 30.2231 40.1211 30.0916 37.3879C30.015 35.7948 26.9747 18.593 30.4182 21.205C35.5621 25.1068 41.7299 32.6397 48.1606 33.9202C57.2756 35.7351 69.2413 36.7198 73.5225 26.869C77.3008 18.1756 96.5484 52.3331 92.2446 65.1301C90.9566 68.96 87.295 79.6922 90.2854 77.1517C92.8439 74.9781 90.3426 63.972 90.6119 60.9688C91.0542 56.0372 93.4843 51.3741 93.2243 46.4042C92.466 31.9099 64.3018 27.4426 55.3447 25.7131C52.2897 25.1233 37.1225 19.5715 39.0173 19.1244C47.2058 17.1919 53.4587 14.9459 61.8757 15.1942C67.0732 15.3475 88.5428 17.5039 90.8296 22.3609C94.2472 29.6196 91.901 46.523 89.7411 54.2644C88.6251 58.2641 93.2793 65.9674 90.8296 68.8291C86.2617 74.165 74.2335 74.8444 67.7535 75.4178C54.1283 76.6236 40.2157 77.6141 26.6084 77.6141C22.3047 77.6141 17.7928 77.2175 13.5465 78.0765C-0.817783 80.982 7.14963 79.4434 7.66863 69.5226C8.21534 59.0723 8.97483 47.5577 8.97483 37.1568C8.97483 30.4481 8.57651 30.2326 9.08367 37.5035C9.63404 45.3938 9.22324 56.9754 11.3695 64.6677C15.3612 78.9743 21.3764 80.1696 33.4659 89.0577C40.9761 94.5791 81.236 106.735 86.911 100.039C88.9223 97.6659 85.769 88.4035 84.9517 85.4744C83.8702 81.5981 79.9423 60.0453 82.9924 58.4258C83.0944 58.3716 86.0429 76.4931 86.2579 77.9609C87.092 83.6546 87.4756 89.1907 87.3464 94.9529C87.1197 105.066 65.4576 94.4719 61.3314 92.4099C53.3723 88.4324 46.9216 84.5645 37.7111 83.9717C34.3649 83.7563 22.2891 81.6997 19.2067 84.3184C16.9967 86.1959 8.01148 85.2023 10.7164 84.3184C20.9423 80.9771 35.5512 83.8561 46.0925 83.8561C52.1439 83.8561 59.0489 82.8169 64.9234 84.8964C75.9617 88.8038 62.023 87.7115 68.0801 94.1438C78.1491 104.837 81.4686 93.6714 81.4686 83.6249C81.4686 71.3255 80.451 59.0021 79.5093 46.7509C78.3322 31.439 70.8674 58.4896 70.5836 59.8129C69.7497 63.7016 62.5563 98.1509 74.0668 96.34C83.3751 94.8756 69.8932 59.0056 74.0668 51.0278C76.4534 46.4659 81.1748 44.7174 85.1694 42.2428C88.1535 40.3943 89.0812 36.0566 86.4756 38.4283C82.3647 42.1702 95.1878 54.9307 92.3535 62.2403C90.9722 65.8026 93.4768 77.5129 93.8774 73.6839C94.7984 64.8814 81.8852 48.1618 79.0739 39.0062C74.9238 25.4909 44.7301 31.434 34.0102 33.4578C21.6261 35.7958 31.6611 28.3153 29.0031 23.5169C24.4945 15.3775 10.1348 30.4577 8.97483 36.0008C5.4279 52.9508 2.3896 70.5682 18.7713 81.313C24.5207 85.0841 30.6395 86.2574 37.2757 86.8615C46.723 87.7214 47.2891 79.4043 51.8615 72.2968C55.7903 66.1897 67.1799 58.2816 66.2296 49.8719C65.4772 43.2134 52.3474 35.8026 47.7252 32.4175C43.7446 29.5022 41.6544 28.8781 38.1465 32.9954C28.6295 44.1658 28.653 55.2783 33.5748 68.8291C33.8563 69.604 39.5404 88.7533 42.2828 82.469C45.0269 76.1805 47.0108 69.0571 48.0518 62.2403C49.6259 51.9319 56.8653 40.4207 65.25 34.6137C68.5844 32.3044 79.3071 26.2489 72.3252 22.1298C65.4949 18.1001 48.0525 9.91982 40.1058 15.1942C31.1534 21.1361 66.5697 29.2076 68.4066 29.7589C76.4092 32.1606 78.159 58.7726 78.8562 65.3613C81.7349 92.5689 63.1338 87.2009 45.004 80.1571C30.3648 74.4695 3.57742 64.8724 11.1518 42.474C17.7225 23.0439 36.5151 13.1149 51.7527 27.6782C57.4804 33.1525 76.7593 53.7871 68.1889 63.5118C58.1611 74.8903 37.1103 69.546 24.6491 67.2108" stroke="#E0ED4D" stroke-opacity="0.71" stroke-width="10" stroke-linecap="round"/>
</svg>
